<svg width="20" height="20" viewBox="0 0 20 20" fill="none" xmlns="http://www.w3.org/2000/svg">
<path d="M1 1L4 3.58069M4 3.58069L6.51041 10.6107C6.8756 11.6333 7.05819 12.1446 7.42946 12.4814C7.55087 12.5915 7.68536 12.6863 7.8299 12.7636C8.27189 13 8.81484 13 9.90073 13H13.4232C14.4641 13 14.9845 13 15.4145 12.7793C15.5553 12.707 15.687 12.6182 15.8069 12.5149C16.1731 12.1993 16.3686 11.717 16.7596 10.7524L17.6592 8.53309C18.4606 6.55607 18.8613 5.56756 18.5421 4.80692C18.4409 4.56567 18.2934 4.34662 18.1078 4.16219C17.5228 3.58069 16.4561 3.58069 14.3229 3.58069H4ZM8 15.7H15.8485" stroke="#000" stroke-width="1.5" stroke-linecap="round" stroke-linejoin="round"/>
<circle cx="9" cy="18.5" r="1" fill="#000"/>
<circle cx="15" cy="18.5" r="1" fill="#000"/>
</svg>
