<svg width="24" height="24" viewBox="0 0 24 24" fill="none" xmlns="http://www.w3.org/2000/svg">
<path d="M6.5 9.22222C7.88071 9.22222 9 7.82933 9 6.11111C9 4.39289 7.88071 3 6.5 3C5.11929 3 4 4.39289 4 6.11111C4 7.82933 5.11929 9.22222 6.5 9.22222ZM6.5 9.22222V9.33333M6.5 9.33333L5.82604 10.6813C5.61046 11.1124 5.47459 11.579 5.42498 12.0585L4.7058 19.0106C4.59574 20.0746 5.43039 21 6.5 21C7.56961 21 8.40426 20.0745 8.2942 19.0106L7.57502 12.0585C7.52541 11.579 7.38954 11.1124 7.17396 10.6813L6.5 9.33333ZM20 6.11111C20 7.82933 18.8807 9.22222 17.5 9.22222M20 6.11111V3M20 6.11111H17.5M17.5 9.22222C16.1193 9.22222 15 7.82933 15 6.11111M17.5 9.22222V9.33333M15 6.11111V3M15 6.11111H17.5M17.5 9.33333L16.826 10.6813C16.6105 11.1124 16.4746 11.579 16.425 12.0585L15.7058 19.0106C15.5957 20.0746 16.4304 21 17.5 21C18.5696 21 19.4043 20.0745 19.2942 19.0106L18.575 12.0585C18.5254 11.579 18.3895 11.1124 18.174 10.6813L17.5 9.33333ZM17.5 3V6.11111" stroke="#000" stroke-width="1.5" stroke-linecap="round" stroke-linejoin="round"/>
</svg>
