<svg width="24" height="24" viewBox="0 0 24 24" fill="none" xmlns="http://www.w3.org/2000/svg">
<path d="M3 5C3 3.89543 3.89543 3 5 3H19C20.1046 3 21 3.89543 21 5V7.03401C21 7.62124 20.7419 8.17881 20.2942 8.55881L15.2058 12.8777C14.7581 13.2577 14.5 13.8153 14.5 14.4025V18.8651C14.5 19.5673 14.1317 20.2181 13.5298 20.5796L12.5298 21.1803C11.1967 21.9809 9.5 21.0207 9.5 19.4657V14.4025C9.5 13.8153 9.24192 13.2577 8.79421 12.8777L3.70579 8.55881C3.25808 8.17881 3 7.62124 3 7.03401V5Z" stroke="#000" stroke-width="1.5" stroke-linejoin="round"/>
</svg>
