<svg width="20" height="19" viewBox="0 0 20 19" fill="none" xmlns="http://www.w3.org/2000/svg">
<path d="M1.95147 12.728C1.11945 10.5868 0.703441 9.51621 0.853584 8.47586C0.902593 8.13627 0.99509 7.8044 1.1288 7.48843C1.53842 6.5204 2.44823 5.81931 4.26784 4.41713L5.60522 3.38657C7.47522 1.94557 8.41021 1.22507 9.47627 1.08428C9.82391 1.03836 10.1761 1.03836 10.5237 1.08428C11.5898 1.22507 12.5248 1.94557 14.3948 3.38657L15.7322 4.41713C17.5518 5.81931 18.4616 6.5204 18.8712 7.48843C19.0049 7.8044 19.0974 8.13627 19.1464 8.47586C19.2966 9.51621 18.8805 10.5868 18.0485 12.728L17.7844 13.4078C17.0193 15.3768 16.6367 16.3613 15.9008 17.0069C15.6599 17.2183 15.3945 17.3999 15.1103 17.5478C14.2419 18 13.1857 18 11.0733 18H8.92674C6.81429 18 5.75806 18 4.8897 17.5478C4.60549 17.3999 4.34009 17.2183 4.09921 17.0069C3.36325 16.3613 2.9807 15.3768 2.21559 13.4078L1.95147 12.728Z" stroke="#000" stroke-width="1.5" stroke-linecap="square" stroke-linejoin="round"/>
<line x1="8.75" y1="13.25" x2="11.25" y2="13.25" stroke="#000" stroke-width="1.5" stroke-linecap="square"/>
</svg>
