<svg width="20" height="18" viewBox="0 0 20 18" fill="none" xmlns="http://www.w3.org/2000/svg">
<path d="M8.2 17H11.8C14.7998 17 16.2997 17 17.3511 16.2361C17.6907 15.9893 17.9893 15.6907 18.2361 15.3511C19 14.2997 19 12.7998 19 9.8V8.2C19 5.20021 19 3.70032 18.2361 2.64886C17.9893 2.30928 17.6907 2.01065 17.3511 1.76393C16.2997 1 14.7998 1 11.8 1H8.2C5.20021 1 3.70032 1 2.64886 1.76393C2.30928 2.01065 2.01065 2.30928 1.76393 2.64886C1 3.70032 1 5.20021 1 8.2V9.8C1 12.7998 1 14.2997 1.76393 15.3511C2.01065 15.6907 2.30928 15.9893 2.64886 16.2361C3.70032 17 5.20021 17 8.2 17Z" stroke="#000" stroke-width="1.5"/>
<path d="M4 6L5.39068 7.1589C7.34082 8.78401 8.31589 9.59657 9.446 9.75462C9.81354 9.80602 10.1865 9.80602 10.554 9.75462C11.6841 9.59657 12.6592 8.78401 14.6093 7.15889L16 6" stroke="#000" stroke-width="1.5" stroke-linecap="round"/>
</svg>
