<svg width="16" height="21" viewBox="0 0 16 21" fill="none" xmlns="http://www.w3.org/2000/svg">
<circle cx="8" cy="5" r="4" stroke="#000" stroke-width="1.5" stroke-linecap="square"/>
<path d="M1.08172 15.1323C1.20546 14.5754 1.26734 14.297 1.36031 14.0606C1.78224 12.9877 2.74097 12.2186 3.87984 12.0395C4.1308 12 4.41602 12 4.98646 12H11.0135C11.584 12 11.8692 12 12.1202 12.0395C13.259 12.2186 14.2178 12.9877 14.6397 14.0606C14.7327 14.297 14.7945 14.5754 14.9183 15.1323V15.1323C15.1022 15.9599 15.1942 16.3737 15.1983 16.7104C15.2172 18.2633 14.1348 19.6126 12.6148 19.931C12.2852 20 11.8613 20 11.0135 20H4.98646C4.13867 20 3.71478 20 3.38521 19.931C1.86518 19.6126 0.782809 18.2633 0.801744 16.7104C0.805849 16.3737 0.897805 15.9599 1.08172 15.1323V15.1323Z" stroke="#000" stroke-width="1.5" stroke-linecap="square"/>
</svg>
