<svg width="128" height="128" viewBox="0 0 128 128" fill="none" xmlns="http://www.w3.org/2000/svg">
<path fill-rule="evenodd" clip-rule="evenodd" d="M51.3413 13.6778C58.3996 7.50154 66.521 4.21592 77.9048 5.05146C96.5851 6.42253 110.784 16.0727 117.943 28.2876C124.977 40.2906 125.226 54.9122 115.918 66.0775C115.826 66.9828 115.865 68.5358 116.105 70.7066C116.386 73.2522 116.896 76.2746 117.495 79.3226C118.347 83.6575 119.364 87.9581 120.113 90.8553L121.337 95.5884L116.637 94.1265C100.96 89.2501 86.3426 91.7563 74.3445 96.9542C62.3049 102.17 53.0391 110.044 48.2595 115.607L41.842 123.077L43.4684 113.396C43.6311 112.427 43.4493 111.028 42.7755 109.201C42.1165 107.413 41.0738 105.449 39.8093 103.458C37.6908 100.123 35.0784 96.9147 33.0002 94.6334C26.1516 96.4933 19.8855 95.2971 14.9898 91.9583C9.74486 88.3812 6.2951 82.5018 5.25678 75.8702C3.17547 62.5773 10.6784 46.4822 32.0558 37.6401C32.6666 36.7806 33.2691 35.9298 33.8646 35.0888C39.9177 26.5402 45.2531 19.0051 51.3413 13.6778ZM40.8986 34.6335C49.542 32.2586 57.0178 29.4027 72.2191 30.8838L72.6699 31.022C56.7868 31.022 44.0844 38.6933 34.8594 42.3792C14.8218 50.3854 9.03028 64.5293 10.6752 75.0352C11.5122 80.3807 14.2492 84.8518 18.0962 87.4754C21.883 90.0581 26.9656 91.0067 32.9403 88.9601C37.5524 87.3803 42.7716 83.9818 48.2594 78.0107C46.051 85.1621 42.9905 90.3042 38.4492 92.5468C40.4038 94.8196 42.5868 97.6273 44.4484 100.558C45.8341 102.739 47.0876 105.06 47.9252 107.332C47.9896 107.506 48.0522 107.682 48.1126 107.86C53.7606 102.462 62.0497 96.3445 72.1501 91.9688C83.9034 86.877 98.222 84.1008 113.694 87.6919C113.247 85.7771 112.78 83.6668 112.343 81.5173C110.02 80.3593 95.8311 75.706 85.8058 79.3226L91.845 77.287C100.126 74.2998 106.725 74.3013 111.217 75.3811C110.989 73.9609 110.796 72.5838 110.654 71.2999C110.536 70.2283 110.443 69.1502 110.406 68.1268C110.406 68.1268 107.74 62.3659 63.8721 70.7066C93.7189 59.917 111.894 62.3659 111.894 62.3659C119.281 53.2854 119.245 41.3321 113.202 31.022C106.995 20.4312 94.4623 11.7215 77.5003 10.4766C67.6566 9.75408 60.9727 12.5037 54.9685 17.7575C50.202 21.9283 45.9006 27.6295 40.8986 34.6335Z" fill="white"/>
</svg>
