<svg width="400" height="306" viewBox="0 0 400 306" fill="none" xmlns="http://www.w3.org/2000/svg">
<rect x="1" y="1" width="398" height="304" rx="5" stroke="#9747FF" stroke-linecap="square" stroke-dasharray="8 8"/>
<circle cx="27" cy="28" r="3" stroke="#000" stroke-width="1.5" stroke-linecap="square"/>
<path d="M33 28H42" stroke="#000" stroke-width="1.5" stroke-linecap="round"/>
<circle cx="39" cy="38" r="3" transform="rotate(-180 39 38)" stroke="#000" stroke-width="1.5" stroke-linecap="square"/>
<path d="M33 38H24" stroke="#000" stroke-width="1.5" stroke-linecap="round"/>
<path d="M110 39L104.707 33.7071C104.317 33.3166 104.317 32.6834 104.707 32.2929L110 27M104.414 33H122.414" stroke="#000" stroke-width="1.5" stroke-linecap="round" stroke-linejoin="round"/>
<path d="M184.951 36.728C184.119 34.5868 183.703 33.5162 183.854 32.4759C183.903 32.1363 183.995 31.8044 184.129 31.4884C184.538 30.5204 185.448 29.8193 187.268 28.4171L188.605 27.3866C190.475 25.9456 191.41 25.2251 192.476 25.0843C192.824 25.0384 193.176 25.0384 193.524 25.0843C194.59 25.2251 195.525 25.9456 197.395 27.3866L198.732 28.4171C200.552 29.8193 201.462 30.5204 201.871 31.4884C202.005 31.8044 202.097 32.1363 202.146 32.4759C202.297 33.5162 201.881 34.5868 201.049 36.728L200.784 37.4078C200.019 39.3768 199.637 40.3613 198.901 41.0069C198.66 41.2183 198.395 41.3999 198.11 41.5478C197.242 42 196.186 42 194.073 42H191.927C189.814 42 188.758 42 187.89 41.5478C187.605 41.3999 187.34 41.2183 187.099 41.0069C186.363 40.3613 185.981 39.3768 185.216 37.4078L184.951 36.728Z" stroke="#000" stroke-width="1.5" stroke-linecap="square" stroke-linejoin="round"/>
<line x1="191.75" y1="37.25" x2="194.25" y2="37.25" stroke="#000" stroke-width="1.5" stroke-linecap="square"/>
<path d="M270.633 38.9341C271.631 39.805 272.13 40.2405 272.714 40.3249C272.904 40.3523 273.096 40.3523 273.286 40.3249C273.87 40.2405 274.369 39.805 275.367 38.9341L280.051 34.8461C282.137 33.0261 282.615 29.813 281.162 27.3852C279.422 24.4786 275.575 24.1732 273.456 26.7737V26.7737C273.221 27.0627 272.779 27.0628 272.544 26.7738V26.7738C270.425 24.1733 266.578 24.4786 264.838 27.3853C263.385 29.8131 263.863 33.0261 265.949 34.8461L270.633 38.9341Z" stroke="#000" stroke-width="1.5" stroke-linecap="square" stroke-linejoin="round"/>
<path d="M347.5 30.2222C348.881 30.2222 350 28.8293 350 27.1111C350 25.3929 348.881 24 347.5 24C346.119 24 345 25.3929 345 27.1111C345 28.8293 346.119 30.2222 347.5 30.2222ZM347.5 30.2222V30.3333M347.5 30.3333L346.826 31.6813C346.61 32.1124 346.475 32.579 346.425 33.0585L345.706 40.0106C345.596 41.0746 346.43 42 347.5 42C348.57 42 349.404 41.0745 349.294 40.0106L348.575 33.0585C348.525 32.579 348.39 32.1124 348.174 31.6813L347.5 30.3333ZM361 27.1111C361 28.8293 359.881 30.2222 358.5 30.2222M361 27.1111V24M361 27.1111H358.5M358.5 30.2222C357.119 30.2222 356 28.8293 356 27.1111M358.5 30.2222V30.3333M356 27.1111V24M356 27.1111H358.5M358.5 30.3333L357.826 31.6813C357.61 32.1124 357.475 32.579 357.425 33.0585L356.706 40.0106C356.596 41.0746 357.43 42 358.5 42C359.57 42 360.404 41.0745 360.294 40.0106L359.575 33.0585C359.525 32.579 359.39 32.1124 359.174 31.6813L358.5 30.3333ZM358.5 24V27.1111" stroke="#000" stroke-width="1.5" stroke-linecap="round" stroke-linejoin="round"/>
<circle cx="33" cy="108" r="4" stroke="#000" stroke-width="1.5" stroke-linecap="square"/>
<path d="M26.0817 118.132C26.2055 117.575 26.2673 117.297 26.3603 117.061C26.7822 115.988 27.741 115.219 28.8798 115.039C29.1308 115 29.416 115 29.9865 115H36.0135C36.584 115 36.8692 115 37.1202 115.039C38.259 115.219 39.2178 115.988 39.6397 117.061C39.7327 117.297 39.7945 117.575 39.9183 118.132V118.132C40.1022 118.96 40.1942 119.374 40.1983 119.71C40.2172 121.263 39.1348 122.613 37.6148 122.931C37.2852 123 36.8613 123 36.0135 123H29.9865C29.1387 123 28.7148 123 28.3852 122.931C26.8652 122.613 25.7828 121.263 25.8017 119.71C25.8058 119.374 25.8978 118.96 26.0817 118.132V118.132Z" stroke="#000" stroke-width="1.5" stroke-linecap="square"/>
<path d="M113 104C109.559 104 106.769 106.579 106.769 109.759V113.986C106.769 114.963 106.361 115.896 105.644 116.559C105.058 117.1 105.441 118.078 106.238 118.078H119.762C120.559 118.078 120.942 117.1 120.356 116.559C119.639 115.896 119.231 114.963 119.231 113.986V109.759C119.231 106.579 116.441 104 113 104Z" stroke="#000" stroke-width="1.5" stroke-linecap="square" stroke-linejoin="round"/>
<path d="M111 121.497C111 121.497 113 122.629 115 121.497" stroke="#000" stroke-width="1.5" stroke-linecap="round" stroke-linejoin="round"/>
<path d="M198.4 118.279C199.885 116.764 200.8 114.689 200.8 112.4C200.8 107.761 197.039 104 192.4 104C187.761 104 184 107.761 184 112.4C184 117.039 187.761 120.8 192.4 120.8C194.75 120.8 196.875 119.835 198.4 118.279ZM198.4 118.279L202 122" stroke="#000" stroke-width="1.5" stroke-linecap="round" stroke-linejoin="round"/>
<path d="M264 106C264 104.895 264.895 104 266 104H280C281.105 104 282 104.895 282 106V108.034C282 108.621 281.742 109.179 281.294 109.559L276.206 113.878C275.758 114.258 275.5 114.815 275.5 115.403V119.865C275.5 120.567 275.132 121.218 274.53 121.58L273.53 122.18C272.197 122.981 270.5 122.021 270.5 120.466V115.403C270.5 114.815 270.242 114.258 269.794 113.878L264.706 109.559C264.258 109.179 264 108.621 264 108.034V106Z" stroke="#000" stroke-width="1.5" stroke-linejoin="round"/>
<circle cx="345.5" cy="105.5" r="1.5" fill="#000"/>
<circle cx="360.323" cy="105.5" r="1.5" fill="#000"/>
<circle cx="345.5" cy="120.323" r="1.5" fill="#000"/>
<circle cx="360.323" cy="120.323" r="1.5" fill="#000"/>
<line x1="32.8499" y1="184.75" x2="32.8499" y2="201.25" stroke="#000" stroke-width="1.5" stroke-linecap="round" stroke-linejoin="round"/>
<line x1="24.75" y1="193.15" x2="41.25" y2="193.15" stroke="#000" stroke-width="1.5" stroke-linecap="round" stroke-linejoin="round"/>
<rect x="104" y="184" width="7.65548" height="7.57679" rx="3" stroke="#000" stroke-width="1.5"/>
<rect x="104" y="194.423" width="7.65548" height="7.57679" rx="3" stroke="#000" stroke-width="1.5"/>
<rect x="114.344" y="194.423" width="7.65548" height="7.57679" rx="3" stroke="#000" stroke-width="1.5"/>
<rect x="114.344" y="184" width="7.65548" height="7.57679" rx="3" stroke="#000" stroke-width="1.5"/>
<path d="M185.141 194.01C185.49 191.568 185.665 190.347 186.353 189.492C186.653 189.12 187.016 188.804 187.427 188.561C188.371 188 189.604 188 192.071 188H193.929C196.396 188 197.629 188 198.573 188.561C198.984 188.804 199.347 189.12 199.647 189.492C200.335 190.347 200.51 191.568 200.859 194.01V194.01C201.31 197.171 201.536 198.752 200.898 199.919C200.623 200.422 200.243 200.86 199.784 201.203C198.719 202 197.122 202 193.929 202H192.071C188.878 202 187.281 202 186.216 201.203C185.757 200.86 185.377 200.422 185.102 199.919C184.464 198.752 184.69 197.171 185.141 194.01V194.01Z" stroke="#000" stroke-width="1.5"/>
<path d="M189 190V187C189 184.791 190.791 183 193 183C195.209 183 197 184.791 197 187V190" stroke="#000" stroke-width="1.5" stroke-linecap="round"/>
<circle cx="196" cy="193" r="1" fill="#000"/>
<circle cx="190" cy="193" r="1" fill="#000"/>
<path d="M281 192C281 196.241 276.098 199.97 273.968 201.39C273.378 201.784 272.622 201.784 272.032 201.39C269.902 199.97 265 196.241 265 192C265 187.582 268.582 184 273 184C277.418 184 281 187.582 281 192Z" stroke="#000" stroke-width="1.5" stroke-linejoin="round"/>
<circle cx="273" cy="191" r="2" stroke="#000" stroke-width="1.5"/>
<path d="M344 184L347 186.581M347 186.581L349.51 193.611C349.876 194.633 350.058 195.145 350.429 195.481C350.551 195.592 350.685 195.686 350.83 195.764C351.272 196 351.815 196 352.901 196H356.423C357.464 196 357.984 196 358.415 195.779C358.555 195.707 358.687 195.618 358.807 195.515C359.173 195.199 359.369 194.717 359.76 193.752L360.659 191.533C361.461 189.556 361.861 188.568 361.542 187.807C361.441 187.566 361.293 187.347 361.108 187.162C360.523 186.581 359.456 186.581 357.323 186.581H347ZM351 198.7H358.848" stroke="#000" stroke-width="1.5" stroke-linecap="round" stroke-linejoin="round"/>
<circle cx="352" cy="201.5" r="1" fill="#000"/>
<circle cx="358" cy="201.5" r="1" fill="#000"/>
<path d="M31.2 281H34.8C37.7998 281 39.2997 281 40.3511 280.236C40.6907 279.989 40.9893 279.691 41.2361 279.351C42 278.3 42 276.8 42 273.8V272.2C42 269.2 42 267.7 41.2361 266.649C40.9893 266.309 40.6907 266.011 40.3511 265.764C39.2997 265 37.7998 265 34.8 265H31.2C28.2002 265 26.7003 265 25.6489 265.764C25.3093 266.011 25.0107 266.309 24.7639 266.649C24 267.7 24 269.2 24 272.2V273.8C24 276.8 24 278.3 24.7639 279.351C25.0107 279.691 25.3093 279.989 25.6489 280.236C26.7003 281 28.2002 281 31.2 281Z" stroke="#000" stroke-width="1.5"/>
<path d="M27 270L28.3907 271.159C30.3408 272.784 31.3159 273.597 32.446 273.755C32.8135 273.806 33.1865 273.806 33.554 273.755C34.6841 273.597 35.6592 272.784 37.6093 271.159L39 270" stroke="#000" stroke-width="1.5" stroke-linecap="round"/>
</svg>
