<svg width="59" height="60" viewBox="0 0 59 60" fill="none" xmlns="http://www.w3.org/2000/svg">
<g id="Logo">
<path id="doradesign" fill-rule="evenodd" clip-rule="evenodd" d="M23.9 6.97082C27.1351 4.14004 30.8574 2.63413 36.075 3.01708C44.6368 3.64549 51.1445 8.0685 54.4257 13.667C57.6499 19.1684 57.7638 25.8699 53.4977 30.9873C53.4554 31.4023 53.4732 32.1141 53.5833 33.109C53.7123 34.2758 53.9458 35.661 54.2204 37.058C54.611 39.0449 55.0771 41.016 55.4205 42.3439L55.9813 44.5132L53.8273 43.8432C46.6418 41.6081 39.9423 42.7568 34.4431 45.1392C28.925 47.5298 24.6782 51.1387 22.4875 53.6885L19.5462 57.1121L20.2916 52.6749C20.3662 52.231 20.2828 51.5896 19.974 50.7521C19.672 49.933 19.1941 49.0326 18.6145 48.1202C17.6435 46.5916 16.4462 45.1211 15.4937 44.0755C12.3548 44.9279 9.48275 44.3797 7.23891 42.8494C4.83498 41.2099 3.25384 38.5151 2.77794 35.4757C1.824 29.3831 5.26287 22.0062 15.0608 17.9536C15.3408 17.5596 15.6169 17.1697 15.8898 16.7842C18.6642 12.8661 21.1096 9.41252 23.9 6.97082ZM19.1138 16.5755C23.0753 15.487 26.5018 14.1781 33.469 14.8569L33.6756 14.9202C26.3959 14.9202 20.5739 18.4363 16.3458 20.1256C7.16192 23.7951 4.50746 30.2778 5.26139 35.093C5.645 37.543 6.89948 39.5923 8.66266 40.7947C10.3983 41.9784 12.7278 42.4132 15.4662 41.4752C17.5801 40.7511 19.9722 39.1935 22.4875 36.4567C21.4753 39.7345 20.0726 42.0912 17.9911 43.1191C18.887 44.1608 19.8875 45.4477 20.7407 46.7909C21.3759 47.7908 21.9504 48.8545 22.3343 49.8955C22.3638 49.9756 22.3925 50.0563 22.4202 50.1375C25.0088 47.6636 28.808 44.8597 33.4374 42.8542C38.8243 40.5205 45.387 39.248 52.4785 40.894C52.2735 40.0163 52.0595 39.0491 51.8593 38.0639C50.7944 37.5332 44.2912 35.4004 39.6963 37.058L42.4642 36.1251C46.2595 34.7559 49.2841 34.7566 51.343 35.2515C51.2386 34.6006 51.1501 33.9694 51.085 33.381C51.0307 32.8898 50.9883 32.3957 50.9715 31.9266C50.9715 31.9266 49.7492 29.2862 29.6433 33.109C43.3231 28.1638 51.6532 29.2862 51.6532 29.2862C55.0389 25.1243 55.0224 19.6457 52.253 14.9202C49.4081 10.0661 43.6638 6.0742 35.8895 5.5036C31.3779 5.17245 28.3144 6.43267 25.5625 8.8407C23.3778 10.7523 21.4063 13.3653 19.1138 16.5755Z" fill="#9AD983"/>
</g>
</svg>
